<?xml version="1.0" encoding="UTF-8" standalone="no"?>
<svg
   xmlns:dc="http://purl.org/dc/elements/1.1/"
   xmlns:cc="http://creativecommons.org/ns#"
   xmlns:rdf="http://www.w3.org/1999/02/22-rdf-syntax-ns#"
   xmlns:svg="http://www.w3.org/2000/svg"
   xmlns="http://www.w3.org/2000/svg"
   xmlns:sodipodi="http://sodipodi.sourceforge.net/DTD/sodipodi-0.dtd"
   xmlns:inkscape="http://www.inkscape.org/namespaces/inkscape"
   version="1.1"
   id="Layer_1"
   x="0px"
   y="0px"
   viewBox="0 0 122.88 107.76"
   style="enable-background:new 0 0 122.88 107.76"
   xml:space="preserve"
   sodipodi:docname="crown.svg"
   inkscape:version="0.92.5 (2060ec1f9f, 2020-04-08)"><metadata
     id="metadata72"><rdf:RDF><cc:Work
         rdf:about=""><dc:format>image/svg+xml</dc:format><dc:type
           rdf:resource="http://purl.org/dc/dcmitype/StillImage" /><dc:title></dc:title></cc:Work></rdf:RDF></metadata><defs
     id="defs70" /><sodipodi:namedview
     pagecolor="#ffffff"
     bordercolor="#666666"
     borderopacity="1"
     objecttolerance="10"
     gridtolerance="10"
     guidetolerance="10"
     inkscape:pageopacity="0"
     inkscape:pageshadow="2"
     inkscape:window-width="2267"
     inkscape:window-height="1175"
     id="namedview68"
     showgrid="false"
     inkscape:zoom="5.5029695"
     inkscape:cx="57.307384"
     inkscape:cy="25.493182"
     inkscape:window-x="845"
     inkscape:window-y="105"
     inkscape:window-maximized="0"
     inkscape:current-layer="Layer_1" /><style
     type="text/css"
     id="style61">.st0{fill-rule:evenodd;clip-rule:evenodd;}</style><g
     id="g65"
     transform="matrix(1,0,0,1.001686,0,3.3722093e-5)"
     style="fill:#ffdd55"><path
       class="st0"
       d="m 21.13,83.86 h 80.25 l 12.54,-34.73 c 0.65,0.21 1.35,0.32 2.07,0.32 3.8,0 6.89,-3.08 6.89,-6.89 0,-3.8 -3.08,-6.89 -6.89,-6.89 -3.8,0 -6.89,3.08 -6.89,6.89 0,1.5 0.48,2.88 1.29,4.01 l -7.12,5.86 C 93.3,60.63 87.05,56.83 89,44.09 l 1.1,-7.17 c 0.38,0.07 0.78,0.1 1.18,0.1 3.8,0 6.89,-3.08 6.89,-6.89 0,-3.8 -3.08,-6.89 -6.89,-6.89 -3.8,0 -6.89,3.08 -6.89,6.89 0,2.17 1.01,4.11 2.58,5.37 l -1.71,2.7 C 76.88,50.78 70.7,45.96 68.23,33.53 L 63.82,13.22 c 2.47,-1.05 4.21,-3.49 4.21,-6.35 0,-3.8 -3.08,-6.89 -6.89,-6.89 -3.8,0 -6.89,3.08 -6.89,6.89 0,3.18 2.15,5.85 5.07,6.65 L 56.46,25.1 C 53.98,35.71 51.01,56.85 37.58,38.83 l -2.19,-2.98 c 1.73,-1.25 2.86,-3.29 2.86,-5.59 0,-3.8 -3.08,-6.89 -6.89,-6.89 -3.8,0 -6.89,3.08 -6.89,6.89 0,3.8 3.08,6.89 6.89,6.89 0.53,0 1.05,-0.06 1.55,-0.18 l 0.46,4.68 c 0.9,6.39 2.05,15.04 -5.29,14.63 -3.64,-0.2 -5.01,-1.44 -7.79,-3.42 l -7.94,-5.63 c 0.89,-1.16 1.42,-2.61 1.42,-4.19 0,-3.8 -3.08,-6.89 -6.89,-6.89 -3.8,0 -6.89,3.08 -6.89,6.89 0,3.81 3.08,6.89 6.89,6.89 0.9,0 1.75,-0.17 2.54,-0.48 z m -0.06,9.61 h 80.51 v 14.29 H 21.07 Z"
       id="path63"
       inkscape:connector-curvature="0"
       style="clip-rule:evenodd;fill:#ffdd55;fill-rule:evenodd" /></g></svg>